<svg xmlns="http://www.w3.org/2000/svg" viewBox="0 0 320 220" width="320" height="220" aria-labelledby="title">
  <title id="title">No matching rows empty-state illustration</title>
  <defs>
    <linearGradient id="panelFill" x1="68" y1="42" x2="252" y2="178" gradientUnits="userSpaceOnUse">
      <stop offset="0" stop-color="#F8FAFC"/>
      <stop offset="1" stop-color="#E0F2FE"/>
    </linearGradient>
    <linearGradient id="lensFill" x1="116" y1="54" x2="204" y2="142" gradientUnits="userSpaceOnUse">
      <stop offset="0" stop-color="#C7D2FE" stop-opacity=".72"/>
      <stop offset="1" stop-color="#99F6E4" stop-opacity=".58"/>
    </linearGradient>
    <linearGradient id="accent" x1="91" y1="74" x2="232" y2="176" gradientUnits="userSpaceOnUse">
      <stop offset="0" stop-color="#4F46E5"/>
      <stop offset="1" stop-color="#0F766E"/>
    </linearGradient>
  </defs>
  <ellipse cx="160" cy="194" rx="100" ry="12" fill="#CBD5E1" opacity=".38"/>
  <rect x="58" y="42" width="204" height="132" rx="14" fill="url(#panelFill)" stroke="#CBD5E1" stroke-width="2"/>
  <rect x="82" y="68" width="64" height="10" rx="5" fill="#CBD5E1"/>
  <rect x="82" y="88" width="108" height="8" rx="4" fill="#E2E8F0"/>
  <rect x="82" y="108" width="46" height="38" rx="5" fill="#E0E7FF"/>
  <rect x="140" y="94" width="46" height="52" rx="5" fill="#CCFBF1"/>
  <rect x="198" y="118" width="40" height="28" rx="5" fill="#E0E7FF"/>
  <path d="M82 151h156" stroke="#94A3B8" stroke-width="2" stroke-linecap="round"/>
  <path d="M92 135c22-25 42-3 61-20 17-15 32-21 58 0" fill="none" stroke="#14B8A6" stroke-width="4" stroke-linecap="round" stroke-linejoin="round"/>
  <circle cx="153" cy="102" r="48" fill="url(#lensFill)" stroke="url(#accent)" stroke-width="8"/>
  <path d="M189 138l43 43" stroke="#334155" stroke-width="14" stroke-linecap="round"/>
  <path d="M189 138l43 43" stroke="#0F766E" stroke-width="8" stroke-linecap="round"/>
  <path d="M120 102h66" stroke="#4F46E5" stroke-width="5" stroke-linecap="round"/>
  <path d="M132 118h42" stroke="#0F766E" stroke-width="5" stroke-linecap="round" opacity=".9"/>
  <circle cx="112" cy="54" r="6" fill="#14B8A6" opacity=".35"/>
  <circle cx="246" cy="72" r="5" fill="#6366F1" opacity=".32"/>
  <circle cx="76" cy="166" r="4" fill="#64748B" opacity=".28"/>
</svg>
